<?xml version="1.0" encoding="UTF-8"?>
<svg width="1200pt" height="1200pt" fill="#682078" version="1.1" viewBox="0 0 1200 1200" xmlns="http://www.w3.org/2000/svg">
 <path fill="#fff" d="m928.12 75h-532.69l-217.31 217.31v738.94c0 24.863 9.8789 48.711 27.457 66.293 17.582 17.578 41.43 27.457 66.293 27.457h656.25c24.863 0 48.711-9.8789 66.293-27.457 17.578-17.582 27.457-41.43 27.457-66.293v-862.5c0-24.863-9.8789-48.711-27.457-66.293-17.582-17.578-41.43-27.457-66.293-27.457z"/>
 <path d="m727.5 292.31c9.668 0.29688 18.961-3.7656 25.312-11.062 6.5117-7.7383 9.8594-17.648 9.375-27.75 0.48438-10.102-2.8633-20.012-9.375-27.75-6.7383-6.6641-15.836-10.402-25.312-10.402s-18.574 3.7383-25.312 10.402c-6.6562 7.7383-10.082 17.742-9.5625 27.938-0.42188 10.066 2.9961 19.918 9.5625 27.562 6.3672 7.2773 15.648 11.332 25.312 11.062z"/>
 <path d="m928.12 75h-532.69l-217.31 217.31v738.94c0 24.863 9.8789 48.711 27.457 66.293 17.582 17.578 41.43 27.457 66.293 27.457h656.25c24.863 0 48.711-9.8789 66.293-27.457 17.578-17.582 27.457-41.43 27.457-66.293v-862.5c0-24.863-9.8789-48.711-27.457-66.293-17.582-17.578-41.43-27.457-66.293-27.457zm-115.5 113.62h32.062l53.625 81.562v-81.562h32.062v131.25h-32.062l-53.625-81.188v81.188h-32.062zm-143.62 30.75c5.9648-10.062 14.508-18.348 24.75-24 10.41-5.4219 22.016-8.1328 33.75-7.875 11.922-0.054688 23.664 2.9102 34.125 8.625 10.121 5.6836 18.535 13.969 24.375 24 5.9141 10.598 8.9492 22.555 8.8125 34.688 0.1875 12.223-2.9219 24.27-9 34.875-5.7305 10.113-14.176 18.426-24.375 24-21.164 11.504-46.711 11.504-67.875 0-10.254-5.5703-18.754-13.879-24.562-24-12.234-21.574-12.234-47.988 0-69.562zm-60.188 56.25c-2.4023-2.1523-5.1211-3.9219-8.0625-5.25-3.1875-1.3125-7.875-2.8125-13.688-4.6875-7.1172-2.1211-14.074-4.7539-20.812-7.875-5.4766-2.7266-10.23-6.7109-13.875-11.625-4.0586-5.8828-6.0977-12.922-5.8125-20.062-0.46484-11.152 4.4961-21.844 13.312-28.688 10.344-6.8438 22.473-10.496 34.875-10.496s24.531 3.6523 34.875 10.496c8.8516 6.9922 14.086 17.598 14.25 28.875h-34.688c-0.007812-3.8438-1.7266-7.4844-4.6875-9.9375-3.1055-2.5586-7.043-3.8906-11.062-3.75-3.4062-0.09375-6.7305 1.0391-9.375 3.1875-2.2188 2.5117-3.2422 5.8633-2.8125 9.1875-0.082031 4.1914 2.25 8.0586 6 9.9375 5.9453 3.2461 12.234 5.8242 18.75 7.6875 7.0859 2.3594 14.035 5.1133 20.812 8.25 5.3672 2.7305 10.047 6.6406 13.688 11.438 3.9609 5.4336 6.0039 12.027 5.8125 18.75 0.12891 7.2109-1.8242 14.309-5.625 20.438-4.0703 6.3516-9.8555 11.426-16.688 14.625-7.9961 3.8711-16.812 5.7344-25.688 5.4375-8.8516 0.16406-17.645-1.4297-25.875-4.6875-7.4648-2.707-13.98-7.5273-18.75-13.875-4.7188-6.2852-7.3398-13.895-7.5-21.75h35.062c0.27734 4.2383 2.0742 8.2305 5.0625 11.25 3.1875 2.5391 7.1758 3.8672 11.25 3.75 3.9922 0.16406 7.9375-0.95312 11.25-3.1875 2.7695-2.2227 4.3047-5.6406 4.125-9.1875-0.10547-3.2734-1.6055-6.3438-4.125-8.4375zm-142.12 0c-0.33203 4.4492 0.85938 8.8789 3.375 12.562 2.418 2.8359 6.0312 4.3633 9.75 4.125 3.4297 0.26953 6.7773-1.125 9-3.75 2.4102-3.0859 3.5469-6.9766 3.1875-10.875v-89.062h33v89.625c0.74219 11.836-3.4688 23.449-11.625 32.062-8.6484 7.8086-20.051 11.855-31.688 11.25-12.242 0.57812-24.223-3.6641-33.375-11.812-8.7539-8.9023-13.32-21.102-12.562-33.562zm-82.312-136.69v98.625c0 24.938-28.125 43.688-51.562 43.688h-90.75zm600 892.31c0 14.918-5.9258 29.227-16.477 39.773-10.547 10.551-24.855 16.477-39.773 16.477h-656.25c-14.918 0-29.227-5.9258-39.773-16.477-10.551-10.547-16.477-24.855-16.477-39.773v-600h768.75z" />
 <g transform="translate(600 776) scale(1.5) translate(-600 -776)">
  <text x="600" y="776" font-family="Segoe UI, Arial, sans-serif" font-size="260" font-weight="700" text-anchor="middle" dominant-baseline="middle">5</text>
 </g>
 <g transform="translate(600 776) scale(1.3) translate(-600 -776)">
  <path d="m414.56 756.38c6.7109 4.082 12.621 9.3555 17.438 15.562 4.5078 6.5117 7.5156 13.938 8.8125 21.75 1.8359 11.277 2.6484 22.699 2.4375 34.125-0.38281 7.6211-0.38281 15.254 0 22.875 0.11719 3.9102 1.0781 7.7461 2.8125 11.25 0.96875 2.2812 2.7812 4.0938 5.0625 5.0625 3.3633 1.0547 6.8164 1.8047 10.312 2.25 3.9062 0.52344 7.4297 2.625 9.75 5.8125 2.7695 3.7969 4.1602 8.4297 3.9375 13.125 0 12.5-7.6875 18.75-23.062 18.75-8.8633 0.13281-17.625-1.9297-25.5-6-7.3086-3.8398-13.359-9.6953-17.438-16.875-4.125-7.7266-6.2539-16.363-6.1875-25.125 0-15.938 0-28.688-0.9375-37.5 0-6.2812-0.5-12.551-1.5-18.75-0.9375-5.8125-3.3242-11.293-6.9375-15.938-3.5039-3.8711-7.5469-7.2148-12-9.9375-3.9727-2.1719-7.582-4.957-10.688-8.25-2.3516-3.4688-3.4766-7.6289-3.1875-11.812-0.23828-3.4727 0.49609-6.9453 2.1172-10.023 1.625-3.0781 4.0703-5.6484 7.0703-7.4141 5.8242-3.3594 11.234-7.3867 16.125-12 3.3711-3.5547 5.707-7.9648 6.75-12.75 1.375-5.5234 2.1289-11.184 2.25-16.875 0-6.1875 0-20.812 0.9375-44.25-0.51172-13.047 4.5508-25.695 13.926-34.781 9.375-9.0898 22.176-13.758 35.199-12.844 15.375 0 23.062 6.375 23.062 18.75 0.24609 4.7305-1.0703 9.4062-3.75 13.312-2.3516 3.2148-5.9727 5.2617-9.9375 5.625-4.4805 0.39453-8.8281 1.7344-12.75 3.9375-2.9023 2.3359-4.6211 5.8359-4.6875 9.5625-1.0508 9.3359-1.5508 18.73-1.5 28.125 0.027344 11.109-0.78516 22.203-2.4375 33.188-1.0508 7.8438-3.8711 15.348-8.25 21.938-4.5664 6.5156-10.441 12.008-17.25 16.125z"/>
  <path d="m767.44 739.88c-4.3789-6.5898-7.1992-14.094-8.25-21.938-1.6523-10.984-2.4648-22.078-2.4375-33.188 0.050781-9.3945-0.44922-18.789-1.5-28.125-0.066406-3.7266-1.7852-7.2266-4.6875-9.5625-3.9219-2.2031-8.2695-3.543-12.75-3.9375-3.9648-0.36328-7.5859-2.4102-9.9375-5.625-2.6797-3.9062-3.9961-8.582-3.75-13.312 0-12.375 7.6875-18.75 23.062-18.75 13.023-0.91406 25.824 3.7539 35.199 12.844 9.375 9.0859 14.438 21.734 13.926 34.781 0 23.438 0 37.5 0.9375 44.25 0.12109 5.6914 0.875 11.352 2.25 16.875 1.043 4.7852 3.3789 9.1953 6.75 12.75 4.8906 4.6133 10.301 8.6406 16.125 12 3 1.7656 5.4453 4.3359 7.0703 7.4141 1.6211 3.0781 2.3555 6.5508 2.1172 10.023 0.28906 4.1836-0.83594 8.3438-3.1875 11.812-3.1055 3.293-6.7148 6.0781-10.688 8.25-4.4531 2.7227-8.4961 6.0664-12 9.9375-3.6133 4.6445-6 10.125-6.9375 15.938-1 6.1992-1.5 12.469-1.5 18.75 0 9.5625 0 22.312-0.9375 37.5 0.066406 8.7617-2.0625 17.398-6.1875 25.125-4.0781 7.1797-10.129 13.035-17.438 16.875-7.875 4.0703-16.637 6.1328-25.5 6-15.375 0-23.062-6.25-23.062-18.75-0.22266-4.6953 1.168-9.3281 3.9375-13.125 2.3203-3.1875 5.8438-5.2891 9.75-5.8125 3.4961-0.44531 6.9492-1.1953 10.312-2.25 2.2812-0.96875 4.0938-2.7812 5.0625-5.0625 1.7344-3.5039 2.6953-7.3398 2.8125-11.25 0.38281-7.6211 0.38281-15.254 0-22.875-0.21094-11.426 0.60156-22.848 2.4375-34.125 1.7969-7.8047 5.3203-15.109 10.312-21.375 4.8164-6.207 10.727-11.48 17.438-15.562-7.3906-4.0508-13.793-9.6875-18.75-16.5z"/>
 </g>
</svg>
